<svg width="250" height="250" viewBox="0 0 250 250" fill="none" xmlns="http://www.w3.org/2000/svg">
<g clip-path="url(#clip0_2_7)">
<rect width="250" height="250" fill="white"/>
<rect width="250" height="250" fill="#202934"/>
<path d="M0 28H56V84H0V28Z" fill="#ED67D7"/>
<path d="M50.08 184.92C41.12 184.92 32.5333 183.747 24.32 181.4C16.1067 178.947 9.49333 175.8 4.48 171.96L13.28 152.44C18.08 155.853 23.7333 158.68 30.24 160.92C36.8533 163.053 43.52 164.12 50.24 164.12C55.36 164.12 59.4667 163.64 62.56 162.68C65.76 161.613 68.1067 160.173 69.6 158.36C71.0933 156.547 71.84 154.467 71.84 152.12C71.84 149.133 70.6667 146.787 68.32 145.08C65.9733 143.267 62.88 141.827 59.04 140.76C55.2 139.587 50.9333 138.52 46.24 137.56C41.6533 136.493 37.0133 135.213 32.32 133.72C27.7333 132.227 23.52 130.307 19.68 127.96C15.84 125.613 12.6933 122.52 10.24 118.68C7.89333 114.84 6.72 109.933 6.72 103.96C6.72 97.56 8.42667 91.7467 11.84 86.52C15.36 81.1867 20.5867 76.9733 27.52 73.88C34.56 70.68 43.36 69.08 53.92 69.08C60.96 69.08 67.8933 69.9333 74.72 71.64C81.5467 73.24 87.5733 75.6933 92.8 79L84.8 98.68C79.5733 95.6933 74.3467 93.5067 69.12 92.12C63.8933 90.6267 58.7733 89.88 53.76 89.88C48.7467 89.88 44.64 90.4667 41.44 91.64C38.24 92.8133 35.9467 94.36 34.56 96.28C33.1733 98.0933 32.48 100.227 32.48 102.68C32.48 105.56 33.6533 107.907 36 109.72C38.3467 111.427 41.44 112.813 45.28 113.88C49.12 114.947 53.3333 116.013 57.92 117.08C62.6133 118.147 67.2533 119.373 71.84 120.76C76.5333 122.147 80.8 124.013 84.64 126.36C88.48 128.707 91.5733 131.8 93.92 135.64C96.3733 139.48 97.6 144.333 97.6 150.2C97.6 156.493 95.84 162.253 92.32 167.48C88.8 172.707 83.52 176.92 76.48 180.12C69.5467 183.32 60.7467 184.92 50.08 184.92ZM115.311 183V71H136.751L184.431 150.04H173.071L219.951 71H241.231L241.551 183H217.231L217.071 108.28H221.551L184.111 171.16H172.431L134.191 108.28H139.631V183H115.311Z" fill="white"/>
</g>
<defs>
<clipPath id="clip0_2_7">
<rect width="250" height="250" fill="white"/>
</clipPath>
</defs>
</svg>
